<svg width="20" height="20" viewBox="0 0 20 20" fill="none" xmlns="http://www.w3.org/2000/svg">
<path d="M8.96704 1.49536C9.7149 1.44712 10.2917 1.446 11.0315 1.49243L11.4172 1.5188C13.6961 1.6963 15.3189 2.32485 16.425 3.36938L16.5305 3.47192C17.6042 4.54409 18.2617 6.12865 18.468 8.3645L18.4866 8.58228C18.5507 9.40625 18.5581 10.2387 18.51 11.0647L18.4866 11.4192C18.3093 13.697 17.6798 15.3188 16.6331 16.4241L16.5305 16.5295C15.4576 17.6008 13.8724 18.2576 11.636 18.4641L11.4172 18.4827C10.4121 18.5609 9.63129 18.5623 8.57642 18.4797L8.35864 18.4612C6.12504 18.2541 4.54112 17.5988 3.46899 16.5286L3.36646 16.4231C2.31991 15.3181 1.69037 13.6961 1.51294 11.4192L1.4895 11.0657C1.44134 10.2393 1.4486 9.40663 1.51294 8.58228L1.53149 8.36353C1.73828 6.13004 2.39598 4.54727 3.46899 3.47583L3.57446 3.37329C4.67977 2.32963 6.30138 1.70173 8.57739 1.52368L8.96704 1.49536ZM9.99829 2.99829C9.54569 2.99938 9.17925 3.35337 9.09888 3.7981C8.82402 5.3197 8.28245 6.46601 7.49048 7.302L7.3938 7.40161C6.55058 8.24351 5.37534 8.81648 3.79517 9.10278C3.34965 9.18359 2.99926 9.54909 2.99927 10.0012C2.99951 10.4531 3.34981 10.8179 3.79517 10.8987C5.31349 11.1737 6.45798 11.7135 7.29321 12.5022L7.3938 12.5999C8.23895 13.4439 8.81299 14.6207 9.09888 16.2043C9.17919 16.6489 9.5508 17.0009 10.0032 17.0012C10.4561 17.0015 10.8125 16.6494 10.8928 16.2043C11.1788 14.6206 11.7537 13.4439 12.5989 12.5999L12.6995 12.5022C13.5357 11.7126 14.6815 11.1724 16.2024 10.8977C16.6476 10.8173 16.9981 10.4529 16.9983 10.0012C16.9983 9.54939 16.6477 9.1842 16.2024 9.10376C14.6196 8.81778 13.443 8.24444 12.5989 7.40161L12.5012 7.30103C11.7093 6.46489 11.1676 5.31893 10.8928 3.79712C10.8123 3.35138 10.4519 2.9972 9.99829 2.99829ZM5.44458 4.18384C4.74897 4.18384 4.18481 4.74799 4.18481 5.4436C4.18485 6.13918 4.74899 6.70337 5.44458 6.70337C6.13996 6.70313 6.70333 6.13903 6.70337 5.4436C6.70337 4.74814 6.13998 4.18408 5.44458 4.18384Z" fill="#9773FF"/>
</svg>
