<svg width="16" height="16" viewBox="0 0 16 16" fill="none" xmlns="http://www.w3.org/2000/svg">
<path fill-rule="evenodd" clip-rule="evenodd" d="M6.73721 1.7019C6.85014 1.47604 7.08098 1.33337 7.3335 1.33337H7.74391C8.97131 1.33337 9.90912 2.42873 9.72004 3.64148L9.45625 5.33337H12.0423C13.6582 5.33337 14.9028 6.7592 14.6845 8.36034L14.2299 11.6937C14.0498 13.015 12.9212 14 11.5877 14H2.66683C1.93045 14 1.3335 13.4031 1.3335 12.6667V8.00004C1.3335 7.26366 1.93045 6.66671 2.66683 6.66671H4.25481L6.73721 1.7019ZM4.00016 8.00004H2.66683V12.6667H4.00016V8.00004ZM5.3335 12.6667H11.5877C12.2545 12.6667 12.8187 12.1742 12.9088 11.5135L13.3634 8.18019C13.4725 7.37962 12.8502 6.66671 12.0423 6.66671H8.67758C8.48283 6.66671 8.29782 6.58155 8.17117 6.43362C8.04451 6.28568 7.98887 6.08976 8.01887 5.89734L8.40262 3.43608C8.46556 3.03236 8.15386 2.66766 7.74552 2.66671L5.3335 7.49075V12.6667Z" fill="#5C5963"/>
</svg>
