<svg width="16" height="16" viewBox="0 0 16 16" fill="none" xmlns="http://www.w3.org/2000/svg">
<path fill-rule="evenodd" clip-rule="evenodd" d="M9.46429 13.9301C9.24029 14.3813 8.78005 14.6666 8.27633 14.6666C7.04921 14.6666 6.11682 13.5688 6.3048 12.3589L6.56771 10.6666H3.99313C2.37889 10.6666 1.14067 9.23836 1.35786 7.63997L1.8108 4.30663C1.99012 2.98697 3.11417 1.99996 4.44608 1.99996L13.3332 1.99996C14.0696 1.99996 14.6665 2.59691 14.6665 3.33329L14.6665 7.99996C14.6665 8.73634 14.0696 9.33329 13.3332 9.33329H11.7465L9.46429 13.9301ZM11.9998 7.99996H13.3332L13.3332 3.33329H11.9998L11.9998 7.99996ZM10.6665 3.33329L4.44608 3.33329C3.78474 3.33329 3.22199 3.82388 3.132 4.48616L2.67905 7.8195C2.56989 8.62283 3.19198 9.33329 3.99313 9.33329H7.34595C7.54064 9.33329 7.7256 9.41839 7.85225 9.56625C7.97891 9.7141 8.0346 9.90993 8.00472 10.1023L7.62232 12.5636C7.5593 12.9692 7.87043 13.3307 8.27198 13.3333L10.6665 8.51024L10.6665 3.33329Z" fill="#5C5963"/>
</svg>
