<svg width="16" height="16" viewBox="0 0 16 16" fill="none" xmlns="http://www.w3.org/2000/svg">
<path fill-rule="evenodd" clip-rule="evenodd" d="M8.00016 2.83333C7.07969 2.83333 6.3335 3.57953 6.3335 4.5C6.3335 5.42047 7.07969 6.16667 8.00016 6.16667C8.92064 6.16667 9.66683 5.42047 9.66683 4.5C9.66683 3.57953 8.92064 2.83333 8.00016 2.83333ZM5.00016 4.5C5.00016 2.84315 6.34331 1.5 8.00016 1.5C9.65702 1.5 11.0002 2.84315 11.0002 4.5C11.0002 6.15685 9.65702 7.5 8.00016 7.5C6.34331 7.5 5.00016 6.15685 5.00016 4.5ZM4.3335 9.16667C3.41302 9.16667 2.66683 9.91286 2.66683 10.8333C2.66683 11.7538 3.41302 12.5 4.3335 12.5C5.25397 12.5 6.00016 11.7538 6.00016 10.8333C6.00016 9.91286 5.25397 9.16667 4.3335 9.16667ZM1.3335 10.8333C1.3335 9.17648 2.67664 7.83333 4.3335 7.83333C5.99035 7.83333 7.3335 9.17648 7.3335 10.8333C7.3335 12.4902 5.99035 13.8333 4.3335 13.8333C2.67664 13.8333 1.3335 12.4902 1.3335 10.8333ZM11.6668 9.16667C10.7464 9.16667 10.0002 9.91286 10.0002 10.8333C10.0002 11.7538 10.7464 12.5 11.6668 12.5C12.5873 12.5 13.3335 11.7538 13.3335 10.8333C13.3335 9.91286 12.5873 9.16667 11.6668 9.16667ZM8.66683 10.8333C8.66683 9.17648 10.01 7.83333 11.6668 7.83333C13.3237 7.83333 14.6668 9.17648 14.6668 10.8333C14.6668 12.4902 13.3237 13.8333 11.6668 13.8333C10.01 13.8333 8.66683 12.4902 8.66683 10.8333Z" fill="#2D0C69"/>
</svg>
