<svg width="16" height="16" viewBox="0 0 16 16" fill="none" xmlns="http://www.w3.org/2000/svg">
<path fill-rule="evenodd" clip-rule="evenodd" d="M3.99967 3.33333C3.99967 2.59695 4.59663 2 5.33301 2H7.99967C8.73605 2 9.33301 2.59695 9.33301 3.33333V4.63502C9.50612 4.39959 9.75744 4.2192 10.0617 4.13769L11.3496 3.79259C12.0608 3.60201 12.792 4.02412 12.9825 4.7354L14.9237 11.9798C15.1143 12.6911 14.6922 13.4223 13.9809 13.6128L12.693 13.9579C11.9817 14.1485 11.2506 13.7264 11.06 13.0151L9.33301 6.56994V12.6667C9.33301 13.403 8.73605 14 7.99967 14H5.33301C5.09015 14 4.86246 13.9351 4.66634 13.8216C4.47023 13.9351 4.24253 14 3.99967 14H2.66634C1.92996 14 1.33301 13.403 1.33301 12.6667V4.66667C1.33301 3.93029 1.92996 3.33333 2.66634 3.33333H3.99967ZM3.99967 4.66667H2.66634V12.6667H3.99967V4.66667ZM5.33301 6V10H7.99967V6H5.33301ZM7.99967 4.66667H5.33301V3.33333H7.99967V4.66667ZM7.99967 11.3333H5.33301V12.6667L7.99967 12.6667V11.3333ZM11.6946 5.0805L10.4067 5.42559L12.3479 12.67L13.6358 12.3249L11.6946 5.0805Z" fill="#2D0C69"/>
</svg>
