<svg width="159" height="159" viewBox="0 0 159 159" fill="none" xmlns="http://www.w3.org/2000/svg">
<rect width="159" height="159" fill="#FFFDFD"/>
<path d="M92.3299 53.1926H66.3729C59.8441 53.1926 54.5264 58.3046 54.5264 64.5643C54.5264 70.824 59.9494 76.2491 66.3729 76.2491H93.4882C104.282 76.2491 113.022 84.4388 113.022 94.5065C113.022 104.574 104.229 112.764 93.4882 112.764H46.7866C44.5753 112.764 42.7852 114.537 42.7852 116.728C42.7852 118.919 44.5753 120.693 46.7866 120.693H93.4882C108.652 120.693 120.972 108.956 120.972 94.5065C120.972 80.057 108.652 68.3201 93.4882 68.3201H66.3729C64.3195 68.3201 62.4767 66.5465 62.4767 64.5643C62.4767 62.5821 64.2142 61.0693 66.3729 61.0693H92.3299C111.969 61.0693 127.922 76.0404 127.922 94.5065C127.922 112.973 111.969 127.944 92.3299 127.944H79.7463C77.5349 127.944 75.7974 129.717 75.7974 131.908C75.7974 134.099 77.5876 135.873 79.7463 135.873H92.3299C116.339 135.873 135.872 117.354 135.872 94.5586C135.872 71.763 116.339 53.2447 92.3299 53.2447V53.1926Z" fill="#9773FF"/>
<path d="M66.6695 105.807H92.6265C99.1553 105.807 104.473 100.695 104.473 94.4353C104.473 88.1757 99.0499 82.7506 92.6265 82.7506H65.5111C54.7177 82.7506 45.9776 74.5608 45.9776 64.4932C45.9776 54.4255 54.7703 46.2358 65.5111 46.2358H112.213C114.424 46.2358 116.214 44.4622 116.214 42.2713C116.214 40.0804 114.424 38.3068 112.213 38.3068H65.5111C50.3476 38.3068 38.0272 50.0437 38.0272 64.4932C38.0272 78.9426 50.3476 90.6795 65.5111 90.6795H92.6265C94.6799 90.6795 96.5227 92.4531 96.5227 94.4353C96.5227 96.4176 94.7852 97.9303 92.6265 97.9303H66.6695C47.0306 97.9303 31.0773 82.9593 31.0773 64.4932C31.0773 46.0271 47.0306 31.056 66.6695 31.056H79.2531C81.4645 31.056 83.2019 29.2825 83.2019 27.0916C83.2019 24.9007 81.4118 23.1793 79.2531 23.1271H66.6695C42.6605 23.1271 23.127 41.6453 23.127 64.441C23.127 87.2367 42.6605 105.755 66.6695 105.755V105.807Z" fill="#9773FF"/>
</svg>
