<svg width="16" height="16" viewBox="0 0 16 16" fill="none" xmlns="http://www.w3.org/2000/svg">
<path fill-rule="evenodd" clip-rule="evenodd" d="M8.00033 1.99996C5.79119 1.99996 4.00033 3.79082 4.00033 5.99996C4.00033 7.39034 4.70934 8.61571 5.78832 9.33329H10.2123C11.2913 8.61571 12.0003 7.39034 12.0003 5.99996C12.0003 3.79082 10.2095 1.99996 8.00033 1.99996ZM9.33366 10.6666H6.66699V11.3333H9.33366V10.6666ZM5.33366 10.6197C5.30601 10.6037 5.27852 10.5874 5.2512 10.571C3.70411 9.63877 2.66699 7.94081 2.66699 5.99996C2.66699 3.05444 5.05481 0.666626 8.00033 0.666626C10.9458 0.666626 13.3337 3.05444 13.3337 5.99996C13.3337 7.94081 12.2965 9.63877 10.7495 10.571C10.7221 10.5874 10.6946 10.6037 10.667 10.6197V11.3333C10.667 12.0697 10.07 12.6666 9.33366 12.6666H6.66699C5.93061 12.6666 5.33366 12.0697 5.33366 11.3333V10.6197ZM6.00033 14C6.00033 13.6318 6.2988 13.3333 6.66699 13.3333H9.33366C9.70185 13.3333 10.0003 13.6318 10.0003 14C10.0003 14.3681 9.70185 14.6666 9.33366 14.6666H6.66699C6.2988 14.6666 6.00033 14.3681 6.00033 14Z" fill="#2D0C69"/>
</svg>
