<svg width="16" height="16" viewBox="0 0 16 16" fill="none" xmlns="http://www.w3.org/2000/svg">
<path fill-rule="evenodd" clip-rule="evenodd" d="M6.00016 4.66671C6.00016 2.82576 7.49255 1.33337 9.3335 1.33337C11.1744 1.33337 12.6668 2.82576 12.6668 4.66671V10C12.6668 12.5774 10.5775 14.6667 8.00016 14.6667C5.42283 14.6667 3.3335 12.5774 3.3335 10V7.33337C3.3335 6.96518 3.63197 6.66671 4.00016 6.66671C4.36835 6.66671 4.66683 6.96518 4.66683 7.33337V10C4.66683 11.841 6.15921 13.3334 8.00016 13.3334C9.84111 13.3334 11.3335 11.841 11.3335 10V4.66671C11.3335 3.56214 10.4381 2.66671 9.3335 2.66671C8.22893 2.66671 7.3335 3.56214 7.3335 4.66671V10C7.3335 10.3682 7.63197 10.6667 8.00016 10.6667C8.36835 10.6667 8.66683 10.3682 8.66683 10V4.66671C8.66683 4.29852 8.96531 4.00004 9.3335 4.00004C9.70169 4.00004 10.0002 4.29852 10.0002 4.66671V10C10.0002 11.1046 9.10473 12 8.00016 12C6.89559 12 6.00016 11.1046 6.00016 10V4.66671Z" fill="#2D0C69"/>
</svg>
