<svg width="16" height="16" viewBox="0 0 16 16" fill="none" xmlns="http://www.w3.org/2000/svg">
<path fill-rule="evenodd" clip-rule="evenodd" d="M7.99967 2.66671C5.05416 2.66671 2.66634 5.05452 2.66634 8.00004C2.66634 9.37606 3.18685 10.63 4.04314 11.5765C5.03931 10.5962 6.4077 10 7.99967 10C9.59165 10 10.96 10.5962 11.9562 11.5765C12.8125 10.63 13.333 9.37606 13.333 8.00004C13.333 5.05452 10.9452 2.66671 7.99967 2.66671ZM10.9408 12.4499C10.1982 11.7575 9.19371 11.3334 7.99967 11.3334C6.80564 11.3334 5.80117 11.7575 5.0586 12.4499C5.9017 13.0085 6.91219 13.3334 7.99967 13.3334C9.08716 13.3334 10.0977 13.0085 10.9408 12.4499ZM1.33301 8.00004C1.33301 4.31814 4.31778 1.33337 7.99967 1.33337C11.6816 1.33337 14.6663 4.31814 14.6663 8.00004C14.6663 10.0157 13.7709 11.8231 12.3585 13.0445C11.1901 14.0549 9.6655 14.6667 7.99967 14.6667C6.33384 14.6667 4.80925 14.0549 3.6409 13.0445C2.22842 11.8231 1.33301 10.0157 1.33301 8.00004ZM7.99967 5.33337C7.2633 5.33337 6.66634 5.93033 6.66634 6.66671C6.66634 7.40309 7.2633 8.00004 7.99967 8.00004C8.73605 8.00004 9.33301 7.40309 9.33301 6.66671C9.33301 5.93033 8.73605 5.33337 7.99967 5.33337ZM5.33301 6.66671C5.33301 5.19395 6.52692 4.00004 7.99967 4.00004C9.47243 4.00004 10.6663 5.19395 10.6663 6.66671C10.6663 8.13947 9.47243 9.33337 7.99967 9.33337C6.52692 9.33337 5.33301 8.13947 5.33301 6.66671Z" fill="#2D0C69"/>
</svg>
