<svg width="16" height="16" viewBox="0 0 16 16" fill="none" xmlns="http://www.w3.org/2000/svg">
<path fill-rule="evenodd" clip-rule="evenodd" d="M8.00017 2.66671C7.0797 2.66671 6.33351 3.4129 6.33351 4.33337C6.33351 5.25385 7.0797 6.00004 8.00017 6.00004C8.92065 6.00004 9.66684 5.25385 9.66684 4.33337C9.66684 3.4129 8.92065 2.66671 8.00017 2.66671ZM5.00017 4.33337C5.00017 2.67652 6.34332 1.33337 8.00017 1.33337C9.65703 1.33337 11.0002 2.67652 11.0002 4.33337C11.0002 5.99023 9.65703 7.33337 8.00017 7.33337C6.34332 7.33337 5.00017 5.99023 5.00017 4.33337ZM8.00017 9.33337C6.03324 9.33337 4.55791 10.4883 3.9471 12.1399C3.90152 12.2631 3.92475 12.3706 4.00715 12.4688C4.09873 12.578 4.26372 12.6667 4.46473 12.6667H11.5356C11.7366 12.6667 11.9016 12.578 11.9932 12.4688C12.0756 12.3706 12.0988 12.2631 12.0532 12.1399C11.4424 10.4883 9.96711 9.33337 8.00017 9.33337ZM2.69655 11.6774C3.49043 9.53086 5.44557 8.00004 8.00017 8.00004C10.5548 8.00004 12.5099 9.53086 13.3038 11.6774C13.5308 12.291 13.3754 12.8959 13.0146 13.3259C12.663 13.7449 12.1203 14 11.5356 14H4.46473C3.88007 14 3.33734 13.7449 2.98575 13.3259C2.62498 12.8959 2.4696 12.291 2.69655 11.6774Z" fill="#2D0C69"/>
</svg>
